<svg id="Layer_1" data-name="Layer 1" xmlns="http://www.w3.org/2000/svg" xmlns:xlink="http://www.w3.org/1999/xlink" viewBox="0 0 1920 1080"><defs><style>.cls-1{fill:url(#linear-gradient);}.cls-2{opacity:0.7;}.cls-3,.cls-4{fill-rule:evenodd;}.cls-3{fill:url(#linear-gradient-2);}.cls-4{fill:url(#linear-gradient-3);}</style><linearGradient id="linear-gradient" x1="129.14" y1="-159.8" x2="1795.5" y2="1238.44" gradientUnits="userSpaceOnUse"><stop offset="0" stop-color="#38bfe8"/><stop offset="0.16" stop-color="#2aa8d7"/><stop offset="0.45" stop-color="#0b78b3"/><stop offset="0.57" stop-color="#1270b3"/><stop offset="0.76" stop-color="#2759b4"/><stop offset="0.96" stop-color="#423ab5"/></linearGradient><linearGradient id="linear-gradient-2" x1="396.65" y1="12.51" x2="1650.87" y2="1064.91" xlink:href="#linear-gradient"/><linearGradient id="linear-gradient-3" x1="1311.7" y1="691.3" x2="1983.86" y2="1255.31" gradientTransform="matrix(0.81, 0.21, -0.21, 0.82, 23.11, -330.98)" xlink:href="#linear-gradient"/></defs><title>Kalebr_LandingPage-02</title><rect class="cls-1" x="-3.8" y="-1.36" width="1932.25" height="1081.36"/><g class="cls-2"><path class="cls-3" d="M97.33,369.22c60.71-68.46,132.33-106,204.53-127.73,178.69-53.65,363.33-14.16,539.43,59.45,55.11,23,111.19,49.62,167.77,41,33.93-5.18,66.65-22.9,99.17-39.83q111.26-57.92,224.35-105.3c114-47.78,232.94-87.57,348.57-51.94,67.77,20.87,131.65,66.92,194.85,112.61,11.81,8.55,24.31,18,31.31,36,5.68,14.59,6.86,32.65,7.71,50a2511.81,2511.81,0,0,1-2.78,293.5c-3.57,52.22-9.55,107-30.1,147-33.23,64.57-91.84,68.47-142.78,61.06C1566.58,819.85,1397,723.51,1223.89,740.74c-99.54,9.91-196.13,57.13-293.28,94.47-134.84,51.83-272.2,85-410.19,102.67-63.86,8.18-128.67,13-191.47-8s-124.15-70.11-164-153.4c-12.47-26-22.84-55.7-26.69-88.36-7.34-62.21,9-131.84-9.2-187.53-8-24.29-21.67-42.44-29.17-67.12s-5-62.3,10.87-70.5"/><path class="cls-4" d="M794.21,620.77c26.59-30.54,56-43.31,85-47.45,71.67-10.24,141.48,30.29,206.46,88.31,20.33,18.15,40.88,38.32,63.21,39.58,13.38.75,26.86-5.38,40.22-11.1a850.34,850.34,0,0,1,91.68-33.3c46.35-13.83,94.22-22.85,137.46,8.4,25.33,18.31,48,49.78,70.5,81,4.19,5.83,8.62,12.24,10.53,22.65,1.55,8.45,1.2,18.3.75,27.72-2.51,53.1-7.27,106-14.2,157.76-3.71,27.75-8.48,56.64-18.24,76-15.77,31.3-38.66,27.29-58.08,18-65.86-31.56-127.28-101.13-195.17-109.92-39-5-78.59,10.3-117.92,20.27C1041.82,972.5,987.09,976,932.8,971.15c-25.12-2.26-50.46-6.44-73.87-24.27s-45-50.71-56.73-99.72a218.9,218.9,0,0,1-6.4-50.37c-.06-34.28,9.39-70.06,4.82-102-2-13.91-6.5-25.11-8.31-39.18s.84-34.08,7.36-36.83"/></g></svg>